<svg version="1.0" xmlns="http://www.w3.org/2000/svg" preserveAspectRatio="xMidYMid meet" className="fill-[#014582] dark:fill-[#ffffff] w-full h-full" viewBox="376.39 352.2 1490.38 1410.74" fill="#014582">         <g transform="translate(0.000000,2481.000000) scale(0.100000,-0.100000)" stroke="none">           <path d="M10550 21283 c-871 -49 -1507 -169 -2170 -409 -1679 -605 -3065 -1855 -3869 -3489 -586 -1190 -825 -2412 -725 -3705 71 -923 325 -1811 767 -2683 353 -699 776 -1279 1338 -1833 214 -211 337 -321 533 -478 1035 -829 2282 -1337 3586 -1461 595 -56 1158 -59 1660 -9 546 54 1166 191 1652 364 61 22 195 63 297 91 910 249 1746 673 2474 1257 1785 1429 2737 3630 2552 5907 -187 2309 -1528 4360 -3575 5470 -650 352 -1374 600 -2120 725 -102 17 -250 46 -330 65 -441 103 -812 157 -1260 185 -148 9 -671 11 -810 3z m810 -43 c219 -14 417 -34 630 -66 178 -26 442 -77 360 -69 -132 13 -762 17 -930 6 -942 -59 -1802 -286 -2629 -696 -1986 -983 -3376 -2864 -3726 -5040 -66 -410 -89 -759 -82 -1220 7 -433 36 -735 112 -1152 65 -357 220 -891 359 -1242 834 -2097 2644 -3653 4831 -4155 850 -195 1756 -226 2608 -90 87 14 160 24 162 22 7 -6 -314 -94 -485 -133 -523 -120 -1018 -179 -1520 -179 -274 -1 -308 1 -475 27 -454 70 -822 159 -1216 293 -1224 415 -2338 1202 -3154 2229 -842 1059 -1358 2311 -1505 3654 -35 318 -43 513 -37 909 6 393 17 557 63 882 213 1542 919 2960 2017 4052 1115 1111 2583 1809 4112 1957 61 6 124 13 140 15 64 7 207 5 365 -4z m1595 -840 c632 -65 1202 -228 1770 -506 1320 -645 2401 -1865 2920 -3293 292 -805 429 -1637 412 -2496 -11 -534 -63 -950 -178 -1406 -245 -980 -731 -1904 -1406 -2676 -150 -171 -467 -484 -633 -624 -777 -657 -1664 -1081 -2590 -1238 -254 -43 -455 -62 -715 -66 l-230 -4 160 14 c534 48 1002 158 1485 350 188 74 588 272 760 375 1149 692 2039 1749 2567 3050 119 294 258 746 327 1070 142 663 177 1388 100 2080 -194 1757 -1134 3395 -2524 4394 -791 569 -1677 900 -2635 986 -81 7 -61 8 105 5 113 -3 250 -9 305 -15z m-1873 -1770 c675 -38 1165 -208 1533 -534 233 -206 411 -521 483 -856 l21 -93 -106 7 c-58 3 -190 6 -292 6 l-187 0 -28 86 c-36 112 -113 262 -175 344 -62 83 -198 214 -276 267 -142 96 -349 181 -556 227 -268 60 -257 59 -1339 63 l-995 3 45 -25 c62 -36 109 -83 131 -130 18 -38 19 -93 19 -1258 0 -1011 -2 -1223 -14 -1251 -22 -53 -74 -104 -139 -136 l-62 -30 970 3 c821 3 988 6 1090 20 368 50 632 136 840 277 157 106 302 271 392 445 25 50 46 91 47 92 3 4 474 -17 514 -23 29 -5 42 -11 42 -23 0 -29 -100 -225 -165 -321 -197 -297 -499 -532 -856 -666 l-77 -29 143 -46 c272 -89 472 -205 635 -368 106 -106 178 -209 247 -350 54 -109 125 -322 113 -335 -5 -5 -140 -11 -299 -14 -278 -5 -291 -4 -297 14 -23 65 -82 178 -128 248 -174 261 -469 452 -825 535 -227 53 -231 54 -1336 57 -958 4 -1028 3 -1000 -12 61 -33 114 -85 139 -136 l26 -52 0 -1349 c0 -977 3 -1360 11 -1388 15 -49 88 -120 169 -164 l65 -35 -590 1 -590 0 67 36 c80 42 142 106 157 159 8 27 11 1001 11 3255 0 2855 -2 3221 -15 3267 -19 63 -86 136 -168 182 -32 18 -57 34 -57 36 0 9 2496 3 2662 -6z m2087 -1753 c377 -46 644 -119 906 -247 357 -174 583 -387 738 -695 122 -243 180 -521 179 -855 -1 -408 -112 -715 -366 -1012 -147 -172 -404 -348 -624 -428 -34 -13 -65 -26 -67 -30 -3 -4 20 -10 50 -14 150 -17 384 -95 538 -180 363 -198 670 -572 796 -967 124 -394 113 -890 -30 -1296 -219 -620 -806 -1049 -1595 -1168 -208 -31 -425 -35 -1783 -35 l-1364 0 67 61 c37 34 77 80 89 103 l22 41 3 2223 2 2222 313 0 c171 0 329 -3 350 -6 l37 -7 0 -315 0 -315 -25 -42 c-24 -42 -84 -88 -155 -119 -32 -14 51 -15 900 -12 834 2 948 4 1060 20 591 84 966 339 1127 766 51 134 74 263 80 450 11 344 -46 587 -191 803 -199 299 -530 475 -1050 560 -125 20 -171 21 -1036 24 l-905 3 40 -20 c62 -31 111 -76 134 -123 20 -41 21 -59 21 -349 l0 -306 -32 -6 c-18 -3 -176 -9 -350 -13 l-317 -6 -3 539 -3 539 -23 47 c-27 55 -96 119 -164 154 -27 13 -48 27 -48 30 0 3 573 3 1273 1 1099 -3 1290 -6 1406 -20z"/>           <path d="M11276 13281 c23 -11 60 -35 82 -55 78 -71 72 41 72 -1343 0 -1177 -1 -1240 -19 -1278 -23 -51 -70 -98 -135 -136 l-51 -29 1135 3 c1031 3 1144 4 1230 20 293 54 483 126 676 255 191 128 320 275 420 477 102 208 144 403 144 677 0 310 -67 551 -217 777 -69 104 -228 264 -340 344 -221 157 -515 260 -848 297 -54 6 -507 10 -1140 10 -1035 0 -1049 -1 -1009 -19z m1877 -463 c6 -386 40 -560 150 -771 77 -149 144 -224 280 -313 l52 -34 -333 0 c-315 0 -335 1 -373 20 -118 61 -231 248 -283 470 -48 203 -58 299 -63 608 l-5 292 285 0 285 0 5 -272z"/>         </g>       </svg>